<svg xmlns="http://www.w3.org/2000/svg" width="20" height="20" viewBox="0 0 20 20">
    <path fill="#FFF" fill-rule="evenodd" d="M13.75 0C17.201 0 20 2.799 20 6.25v7.5c0 3.451-2.799 6.25-6.25 6.25h-7.5C2.799 20 0 17.201 0 13.75v-7.5C0 2.799 2.799 0 6.25 0zm0 1.875h-7.5c-2.413 0-4.375 1.962-4.375 4.375v7.5c0 2.413 1.962 4.375 4.375 4.375h7.5c2.413 0 4.375-1.962 4.375-4.375v-7.5c0-2.413-1.962-4.375-4.375-4.375zM10 5c2.761 0 5 2.239 5 5s-2.239 5-5 5-5-2.239-5-5 2.239-5 5-5zm0 1.875c-1.723 0-3.125 1.401-3.125 3.125 0 1.723 1.402 3.125 3.125 3.125s3.125-1.402 3.125-3.125c0-1.724-1.402-3.125-3.125-3.125zm5.375-2.916c.368 0 .666.298.666.666 0 .368-.298.666-.666.666-.368 0-.666-.298-.666-.666 0-.368.298-.666.666-.666z"/>
</svg>
