<svg xmlns="http://www.w3.org/2000/svg" width="20" height="20" viewBox="0 0 20 20">
    <path fill="#FFF" fill-rule="evenodd" d="M7.461 18.333c-.865 0-1.755-.071-2.65-.214-1.578-.252-3.174-1.092-3.626-1.344L0 16.115l1.283-.429c1.402-.47 2.255-.76 3.312-1.217-1.058-.521-1.873-1.46-2.265-2.672l-.299-.922.245.038c-.232-.238-.415-.48-.557-.7-.505-.781-.773-1.736-.716-2.554l.056-.805.474.187c-.2-.385-.345-.795-.43-1.225-.206-1.048-.033-2.162.488-3.136l.412-.77.552.674c1.745 2.134 3.954 3.4 6.577 3.77-.107-.752-.027-1.477.239-2.128.309-.757.859-1.4 1.59-1.857.812-.508 1.797-.754 2.773-.693 1.036.065 1.976.46 2.723 1.143.364-.096.633-.2.996-.339.219-.083.467-.178.777-.287l1.142-.401-.745 2.167c.05-.004.1-.008.153-.01L20 3.892l-.721 1.004-.067.096c-.058.09-.13.2-1.12 1.546-.248.337-.371.776-.348 1.236.087 1.749-.123 3.331-.627 4.703-.477 1.297-1.215 2.41-2.194 3.309-1.212 1.111-2.757 1.872-4.593 2.26-.9.192-1.868.287-2.869.287z"/>
</svg>
